<?xml version="1.0" standalone="no"?>
<!DOCTYPE svg PUBLIC "-//W3C//DTD SVG 20010904//EN"
 "http://www.w3.org/TR/2001/REC-SVG-20010904/DTD/svg10.dtd">
<svg version="1.0" xmlns="http://www.w3.org/2000/svg"
 width="100.000000pt" height="100.000000pt" viewBox="0 0 100.000000 100.000000"
 preserveAspectRatio="xMidYMid meet">
<metadata>
Created by potrace 1.11, written by Peter Selinger 2001-2013
</metadata>
<g transform="translate(0.000000,100.000000) scale(0.100000,-0.100000)"
fill="#000000" stroke="none">
<path d="M420 770 c0 -113 -1 -120 -20 -120 -11 0 -20 -4 -20 -10 0 -6 50 -10
130 -10 80 0 130 4 130 10 0 6 -9 10 -20 10 -19 0 -20 7 -20 120 l0 120 -90 0
-90 0 0 -120z"/>
<path d="M380 585 c0 -28 4 -35 19 -35 14 0 20 -9 23 -35 3 -31 1 -35 -18 -35
-29 0 -126 -31 -140 -44 -9 -9 -34 -222 -34 -287 0 -14 21 -17 145 -21 196 -8
355 1 355 18 0 8 5 14 10 14 13 0 13 51 -1 126 -25 140 -32 175 -40 180 -5 3
-30 7 -57 11 -47 5 -48 5 -44 39 3 25 9 34 23 34 15 0 19 7 19 35 l0 35 -130
0 -130 0 0 -35z"/>
</g>
</svg>
